HIERARCHY
ROOT Hips
{
	OFFSET 0.000000 83.214638 0.000000
	CHANNELS 6 Xposition Yposition Zposition Xrotation Yrotation Zrotation
	JOINT Pelvis
	{
		OFFSET 0.000000 0.000000 0.000000
		CHANNELS 3 Xrotation Yrotation Zrotation
		JOINT LeftUpLeg
		{
			OFFSET 8.479700 -4.795502 -0.379100
			CHANNELS 3 Xrotation Yrotation Zrotation
			JOINT LeftLeg
			{
				OFFSET 0.024144 -32.555107 0.112900
				CHANNELS 3 Xrotation Yrotation Zrotation
				JOINT LeftFoot
				{
					OFFSET -0.024144 -32.638630 -3.012600
					CHANNELS 3 Xrotation Yrotation Zrotation
					JOINT LeftToeBase
					{
						OFFSET 0.970200 -13.225400 11.864200
						CHANNELS 3 Xrotation Yrotation Zrotation
						End Site
						{
							OFFSET 0.000000 12.319262 0.000000
						}
					}
					JOINT LFootTongue
					{
						OFFSET 1.142400 -1.059800 6.665200
						CHANNELS 3 Xrotation Yrotation Zrotation
						End Site
						{
							OFFSET 0.000000 12.319262 0.000000
						}
					}
				}
				JOINT LeftPantLeg
				{
					OFFSET 0.918482 -16.533964 -2.284700
					CHANNELS 3 Xrotation Yrotation Zrotation
					End Site
					{
						OFFSET 0.350399 24.744368 0.000000
					}
				}
			}
		}
		JOINT RightUpLeg
		{
			OFFSET -8.479700 -4.795502 -0.379100
			CHANNELS 3 Xrotation Yrotation Zrotation
			JOINT RightLeg
			{
				OFFSET -0.023144 -32.555092 0.112900
				CHANNELS 3 Xrotation Yrotation Zrotation
				JOINT RightFoot
				{
					OFFSET 0.023144 -32.638641 -3.012700
					CHANNELS 3 Xrotation Yrotation Zrotation
					JOINT RightToeBase
					{
						OFFSET -0.970200 -13.225400 11.864200
						CHANNELS 3 Xrotation Yrotation Zrotation
						End Site
						{
							OFFSET 0.000000 12.319244 0.000000
						}
					}
					JOINT RFootTongue
					{
						OFFSET -1.142200 -1.059800 6.665200
						CHANNELS 3 Xrotation Yrotation Zrotation
						End Site
						{
							OFFSET 0.000000 12.319243 0.000000
						}
					}
				}
				JOINT RightPantLeg
				{
					OFFSET -0.919482 -16.533978 -2.284800
					CHANNELS 3 Xrotation Yrotation Zrotation
					End Site
					{
						OFFSET -0.350400 24.744419 0.000000
					}
				}
			}
		}
	}
	JOINT Spine
	{
		OFFSET 0.000000 7.722000 1.166200
		CHANNELS 3 Xrotation Yrotation Zrotation
		JOINT Spine1
		{
			OFFSET 0.000000 12.024101 0.248800
			CHANNELS 3 Xrotation Yrotation Zrotation
			JOINT Spine2
			{
				OFFSET 0.000000 11.502998 -0.491200
				CHANNELS 3 Xrotation Yrotation Zrotation
				JOINT Neck
				{
					OFFSET 0.000000 18.430702 -3.123100
					CHANNELS 3 Xrotation Yrotation Zrotation
					JOINT Head
					{
						OFFSET 0.000000 9.051102 1.034000
						CHANNELS 3 Xrotation Yrotation Zrotation
						JOINT HairB
						{
							OFFSET 0.208400 24.786102 24.822300
							CHANNELS 3 Xrotation Yrotation Zrotation
							End Site
							{
								OFFSET 0.000000 32.263779 0.000000
							}
						}
						JOINT HairA
						{
							OFFSET -7.081100 24.428299 23.196600
							CHANNELS 3 Xrotation Yrotation Zrotation
							End Site
							{
								OFFSET 0.000000 32.263779 0.000000
							}
						}
						JOINT Hat
						{
							OFFSET 16.728800 15.048294 -15.439601
							CHANNELS 3 Xrotation Yrotation Zrotation
							End Site
							{
								OFFSET 0.000000 32.263779 0.000000
							}
						}
					}
				}
				JOINT LeftShoulder
				{
					OFFSET 6.197800 13.665199 -4.064700
					CHANNELS 3 Xrotation Yrotation Zrotation
					JOINT LeftArm
					{
						OFFSET 7.778100 -0.187103 -1.709300
						CHANNELS 3 Xrotation Yrotation Zrotation
						JOINT LeftForeArm
						{
							OFFSET 22.049376 0.000000 0.000000
							CHANNELS 3 Xrotation Yrotation Zrotation
							JOINT LeftHand
							{
								OFFSET 23.009392 0.000000 0.000000
								CHANNELS 3 Xrotation Yrotation Zrotation
								JOINT LeftHandThumb1
								{
									OFFSET 3.507191 -2.063065 3.133727
									CHANNELS 3 Xrotation Yrotation Zrotation
									JOINT LeftHandThumb2
									{
										OFFSET 3.101337 -1.790558 1.790558
										CHANNELS 3 Xrotation Yrotation Zrotation
										JOINT LeftHandThumb3
										{
											OFFSET 3.058640 -1.765907 1.765906
											CHANNELS 3 Xrotation Yrotation Zrotation
											End Site
											{
												OFFSET -0.415260 3.926476 -0.049563
											}
										}
									}
								}
								JOINT LeftHandIndex1
								{
									OFFSET 11.334419 -0.901459 3.706815
									CHANNELS 3 Xrotation Yrotation Zrotation
									JOINT LeftHandIndex2
									{
										OFFSET 3.283112 0.000000 0.000000
										CHANNELS 3 Xrotation Yrotation Zrotation
										JOINT LeftHandIndex3
										{
											OFFSET 3.323853 0.000000 0.000000
											CHANNELS 3 Xrotation Yrotation Zrotation
											End Site
											{
												OFFSET -1.135597 3.097809 0.402452
											}
										}
									}
								}
								JOINT LeftHandMiddle1
								{
									OFFSET 11.335861 0.000000 0.000000
									CHANNELS 3 Xrotation Yrotation Zrotation
									JOINT LeftHandMiddle2
									{
										OFFSET 3.410492 0.000000 0.000000
										CHANNELS 3 Xrotation Yrotation Zrotation
										JOINT LeftHandMiddle3
										{
											OFFSET 3.312172 0.000000 0.000000
											CHANNELS 3 Xrotation Yrotation Zrotation
											End Site
											{
												OFFSET -1.150200 3.080154 0.400270
											}
										}
									}
								}
								JOINT LeftHandRing1
								{
									OFFSET 11.514786 -0.013176 -3.003090
									CHANNELS 3 Xrotation Yrotation Zrotation
									JOINT LeftHandRing2
									{
										OFFSET 3.053307 0.000000 0.000000
										CHANNELS 3 Xrotation Yrotation Zrotation
										JOINT LeftHandRing3
										{
											OFFSET 3.295807 0.000000 0.000000
											CHANNELS 3 Xrotation Yrotation Zrotation
											End Site
											{
												OFFSET -1.281006 3.013344 0.375733
											}
										}
									}
								}
								JOINT LeftHandPinky1
								{
									OFFSET 10.518692 -0.960396 -5.730441
									CHANNELS 3 Xrotation Yrotation Zrotation
									JOINT LeftHandPinky2
									{
										OFFSET 2.861649 0.000000 0.000000
										CHANNELS 3 Xrotation Yrotation Zrotation
										JOINT LeftHandPinky3
										{
											OFFSET 2.863380 0.000000 0.000000
											CHANNELS 3 Xrotation Yrotation Zrotation
											End Site
											{
												OFFSET -0.843597 2.711159 0.369971
											}
										}
									}
								}
							}
							JOINT LSleeve
							{
								OFFSET 6.676277 -0.344902 -1.011730
								CHANNELS 3 Xrotation Yrotation Zrotation
								End Site
								{
									OFFSET 0.000000 14.885353 0.000000
								}
							}
						}
					}
				}
				JOINT RightShoulder
				{
					OFFSET -6.197800 13.665199 -4.064700
					CHANNELS 3 Xrotation Yrotation Zrotation
					JOINT RightArm
					{
						OFFSET -7.778100 -0.187103 -1.709300
						CHANNELS 3 Xrotation Yrotation Zrotation
						JOINT RightForeArm
						{
							OFFSET -22.049376 0.000000 0.000000
							CHANNELS 3 Xrotation Yrotation Zrotation
							JOINT RightHand
							{
								OFFSET -23.009392 0.000000 0.000000
								CHANNELS 3 Xrotation Yrotation Zrotation
								JOINT RightHandThumb1
								{
									OFFSET -3.507191 -2.063065 3.133727
									CHANNELS 3 Xrotation Yrotation Zrotation
									JOINT RightHandThumb2
									{
										OFFSET -3.101337 -1.790558 1.790558
										CHANNELS 3 Xrotation Yrotation Zrotation
										JOINT RightHandThumb3
										{
											OFFSET -3.058640 -1.765907 1.765906
											CHANNELS 3 Xrotation Yrotation Zrotation
											End Site
											{
												OFFSET 0.415260 3.926476 -0.049563
											}
										}
									}
								}
								JOINT RightHandIndex1
								{
									OFFSET -11.334419 -0.901459 3.706815
									CHANNELS 3 Xrotation Yrotation Zrotation
									JOINT RightHandIndex2
									{
										OFFSET -3.283112 0.000000 0.000000
										CHANNELS 3 Xrotation Yrotation Zrotation
										JOINT RightHandIndex3
										{
											OFFSET -3.323853 0.000000 0.000000
											CHANNELS 3 Xrotation Yrotation Zrotation
											End Site
											{
												OFFSET 1.135597 3.097809 0.402452
											}
										}
									}
								}
								JOINT RightHandMiddle1
								{
									OFFSET -11.335861 0.000000 0.000000
									CHANNELS 3 Xrotation Yrotation Zrotation
									JOINT RightHandMiddle2
									{
										OFFSET -3.410492 0.000000 0.000000
										CHANNELS 3 Xrotation Yrotation Zrotation
										JOINT RightHandMiddle3
										{
											OFFSET -3.312172 0.000000 0.000000
											CHANNELS 3 Xrotation Yrotation Zrotation
											End Site
											{
												OFFSET 1.150200 3.080154 0.400270
											}
										}
									}
								}
								JOINT RightHandRing1
								{
									OFFSET -11.514786 -0.013176 -3.003090
									CHANNELS 3 Xrotation Yrotation Zrotation
									JOINT RightHandRing2
									{
										OFFSET -3.053307 0.000000 0.000000
										CHANNELS 3 Xrotation Yrotation Zrotation
										JOINT RightHandRing3
										{
											OFFSET -3.295807 0.000000 0.000000
											CHANNELS 3 Xrotation Yrotation Zrotation
											End Site
											{
												OFFSET 1.281006 3.013344 0.375733
											}
										}
									}
								}
								JOINT RightHandPinky1
								{
									OFFSET -10.518692 -0.960396 -5.730441
									CHANNELS 3 Xrotation Yrotation Zrotation
									JOINT RightHandPinky2
									{
										OFFSET -2.861649 0.000000 0.000000
										CHANNELS 3 Xrotation Yrotation Zrotation
										JOINT RightHandPinky3
										{
											OFFSET -2.863380 0.000000 0.000000
											CHANNELS 3 Xrotation Yrotation Zrotation
											End Site
											{
												OFFSET 0.843597 2.711159 0.369971
											}
										}
									}
								}
							}
							JOINT RSleeve
							{
								OFFSET -6.676277 -0.344902 -1.011730
								CHANNELS 3 Xrotation Yrotation Zrotation
								End Site
								{
									OFFSET 0.000000 14.885353 0.000000
								}
							}
						}
					}
				}
				JOINT Backpack
				{
					OFFSET 0.000000 -2.471497 36.677502
					CHANNELS 3 Xrotation Yrotation Zrotation
					End Site
					{
						OFFSET 0.000000 20.427315 0.000000
					}
				}
				JOINT Hood
				{
					OFFSET 0.000000 18.754097 -10.431000
					CHANNELS 3 Xrotation Yrotation Zrotation
					JOINT Hood1
					{
						OFFSET 0.000000 -5.011002 -7.685901
						CHANNELS 3 Xrotation Yrotation Zrotation
						End Site
						{
							OFFSET 0.000000 9.175140 0.000000
						}
					}
				}
				JOINT LHoodieString
				{
					OFFSET 5.250500 16.397697 3.089900
					CHANNELS 3 Xrotation Yrotation Zrotation
					JOINT LHoodieString1
					{
						OFFSET 0.257700 -6.364304 3.694600
						CHANNELS 3 Xrotation Yrotation Zrotation
						JOINT LHoodieString2
						{
							OFFSET 0.000000 -9.643799 2.679100
							CHANNELS 3 Xrotation Yrotation Zrotation
							End Site
							{
								OFFSET 0.000000 10.009018 0.000000
							}
						}
					}
				}
				JOINT RHoodieString
				{
					OFFSET -5.250500 16.397697 3.089900
					CHANNELS 3 Xrotation Yrotation Zrotation
					JOINT RHoodieString1
					{
						OFFSET -0.257700 -6.364304 3.694600
						CHANNELS 3 Xrotation Yrotation Zrotation
						JOINT RHoodieString2
						{
							OFFSET 0.000000 -9.643799 2.679100
							CHANNELS 3 Xrotation Yrotation Zrotation
							End Site
							{
								OFFSET 0.000000 10.009018 0.000000
							}
						}
					}
				}
			}
			JOINT LBackpack_Strap
			{
				OFFSET 15.223200 -7.719803 -6.610900
				CHANNELS 3 Xrotation Yrotation Zrotation
				End Site
				{
					OFFSET 0.000000 16.040596 0.000000
				}
			}
			JOINT RBackpack_Strap
			{
				OFFSET -15.223000 -7.719803 -6.610900
				CHANNELS 3 Xrotation Yrotation Zrotation
				End Site
				{
					OFFSET 0.000000 16.040596 0.000000
				}
			}
		}
	}
	JOINT BoyFacialAnim_Joint
	{
		OFFSET 1.000000 -82.208099 -1.550900
		CHANNELS 3 Xrotation Yrotation Zrotation
		End Site
		{
			OFFSET 0.000000 30.012791 0.000000
		}
	}
}
MOTION
Frames: 5
Frame Time: 0.016667
-0.091439 85.821426 -3.895889 -90.807406 -2.094096 1.791659 0.000000 -0.000000 -0.000000 -4.590810 19.490990 15.613037 3.713143 2.206229 1.566684 23.394470 29.714304 -25.684305 -0.000000 -0.000003 0.000000 -0.000000 -0.000003 -0.000000 0.000000 0.000001 0.000003 -5.645505 -19.396849 -17.439553 1.309562 -6.505038 -4.774662 34.939143 -29.582680 30.498792 0.000000 0.000002 -0.000001 0.000000 0.000002 -0.000001 0.000000 -0.000002 0.000001 0.698470 -0.117908 -0.942850 0.841691 0.154199 -0.463161 0.831251 0.158014 -0.488483 -3.902734 4.009045 -8.413905 2.479698 8.403994 -12.879459 -0.000000 0.000000 0.000000 -0.000000 0.000000 0.000000 -0.000000 0.000000 0.000000 0.834126 -6.730776 -3.480307 44.076594 -39.845845 -34.620900 0.000001 -83.340507 -0.000000 -23.114873 -8.492757 7.463183 -1.945773 1.585334 13.204784 8.601858 21.114939 -0.258287 0.000001 0.000002 -0.000001 0.776300 5.158039 -28.512486 0.566014 2.514187 -25.370937 -0.000003 -0.000000 -0.000000 0.776296 5.158040 -28.512490 0.566011 2.514180 -25.370946 0.000001 0.000001 0.000000 0.776307 5.158031 -28.512505 0.351460 2.000426 -19.928016 -0.000002 -0.000001 -0.000001 0.776306 5.158032 -28.512486 0.064898 0.870533 -8.527009 -0.000002 0.000001 -0.000000 0.000001 0.000003 -0.000001 0.483607 4.500679 3.202686 -4.326319 2.268508 83.611522 0.000016 129.571967 -0.000030 -0.045406 -5.712121 64.766818 -1.120903 -3.665707 -6.555851 8.244876 -30.620769 -3.274773 0.000003 0.000001 0.000004 4.540613 -8.344339 48.387389 6.575562 -4.244528 114.349087 0.000004 0.000002 0.000002 2.375476 -6.542204 44.640207 7.222611 -3.888182 123.454822 0.000004 0.000005 -0.000010 2.745574 -6.923866 44.442282 7.225016 -3.886604 123.490312 -0.000001 -0.000000 0.000000 -10.268018 -14.528495 47.436289 6.314168 -4.353065 110.862890 -0.000000 -0.000002 -0.000000 -0.000000 -0.000004 -0.000000 0.000000 0.000000 -0.000000 0.000000 0.000000 -0.000000 0.000000 0.000000 -0.000000 0.000000 0.000000 -0.000000 0.000000 0.000000 -0.000000 0.000000 0.000000 0.000000 0.000000 0.000000 -0.000000 0.000000 0.000000 -0.000000 0.000000 0.000000 0.000000 0.000000 0.000000 -0.000000 0.000000 0.000000 -0.000000 0.000000 -0.000000 -0.000000 
-0.091406 85.821487 -3.895256 -90.808123 -2.093799 1.792816 0.000000 -0.000000 -0.000000 -4.590868 19.490978 15.612580 3.716816 2.192015 1.566702 23.395070 29.714202 -25.683849 -0.000000 -0.000001 -0.000000 -0.000000 -0.000001 -0.000000 0.000001 -0.000001 -0.000000 -5.645794 -19.396795 -17.439377 1.309756 -6.498357 -4.774672 34.939085 -29.582673 30.498687 0.000000 0.000001 0.000000 0.000000 0.000001 0.000000 0.000000 0.000001 -0.000002 0.698504 -0.117913 -0.942788 0.841706 0.154199 -0.463160 0.831222 0.158014 -0.488483 -3.911635 4.013355 -8.413906 2.496879 8.457174 -12.890525 -0.000000 0.000000 -0.000001 -0.000000 0.000000 -0.000001 -0.000000 0.000000 -0.000001 0.834534 -6.714837 -3.485308 44.088963 -39.859471 -34.587692 0.000009 -83.340507 0.000006 -23.122538 -8.493309 7.462405 -1.945771 1.585328 13.204783 8.601857 21.114936 -0.258284 -0.000003 0.000002 0.000000 0.776301 5.158030 -28.512486 0.566013 2.514189 -25.370937 0.000000 0.000002 -0.000002 0.776298 5.158033 -28.512486 0.566008 2.514184 -25.370937 0.000001 -0.000002 0.000001 0.776309 5.158029 -28.512505 0.351460 2.000425 -19.928016 -0.000001 -0.000001 -0.000001 0.776306 5.158027 -28.512485 0.064899 0.870533 -8.527008 -0.000003 0.000003 0.000000 0.000003 0.000004 0.000001 0.484306 4.488119 3.202632 -4.331825 2.278536 83.612451 0.000063 129.566599 -0.000066 -0.044858 -5.712125 64.772344 -1.120903 -3.665707 -6.555851 8.244873 -30.620776 -3.274771 0.000002 -0.000001 0.000002 4.540612 -8.344337 48.387389 6.575564 -4.244525 114.349094 0.000000 -0.000001 0.000005 2.375477 -6.542203 44.640207 7.222611 -3.888183 123.454822 0.000003 0.000001 0.000000 2.745573 -6.923866 44.442282 7.225013 -3.886603 123.490312 0.000001 -0.000002 -0.000003 -10.268016 -14.528490 47.436282 6.314168 -4.353064 110.862897 -0.000001 0.000000 -0.000003 -0.000000 -0.000004 0.000000 -0.000000 0.000000 -0.000000 -0.000000 0.000000 -0.000000 -0.000000 0.000000 -0.000000 -0.000000 0.000000 -0.000000 -0.000000 0.000000 -0.000000 0.000000 -0.000000 -0.000000 -0.000000 0.000000 -0.000000 -0.000000 0.000000 -0.000000 0.000000 -0.000000 -0.000000 -0.000000 0.000000 -0.000000 -0.000000 0.000000 -0.000000 0.000000 -0.000000 -0.000000 
-0.091112 85.821770 -3.894653 -90.809141 -2.093420 1.793872 -0.000000 0.000000 0.000000 -4.590615 19.491044 15.612139 3.722098 2.179902 1.566724 23.392411 29.713310 -25.683441 -0.000000 -0.000001 0.000000 -0.000000 -0.000001 0.000000 0.000000 -0.000001 0.000003 -5.646341 -19.402124 -17.439186 1.310269 -6.485624 -4.774280 34.938825 -29.582803 30.498499 0.000000 -0.000001 0.000000 0.000000 -0.000001 0.000000 0.000000 -0.000001 0.000000 0.698456 -0.117918 -0.942700 0.841681 0.154199 -0.463160 0.831241 0.158014 -0.488483 -3.937779 4.024674 -8.413907 2.565396 8.514523 -12.913618 0.000000 -0.000000 0.000001 0.000000 -0.000000 0.000001 0.000000 -0.000000 0.000001 0.834871 -6.690142 -3.495207 44.105861 -39.875047 -34.542903 0.000113 -83.340527 0.000096 -23.131805 -8.494032 7.461458 -1.945774 1.585327 13.204779 8.601860 21.114934 -0.258280 0.000002 0.000002 0.000001 0.776301 5.158034 -28.512495 0.566015 2.514188 -25.370939 -0.000001 0.000001 0.000002 0.776294 5.158036 -28.512490 0.566011 2.514185 -25.370939 -0.000001 -0.000004 -0.000000 0.776308 5.158027 -28.512505 0.351461 2.000421 -19.928018 0.000001 0.000001 -0.000002 0.776306 5.158026 -28.512490 0.064898 0.870536 -8.527006 0.000001 -0.000001 -0.000002 -0.000000 -0.000005 -0.000002 0.485156 4.473280 3.202567 -4.337899 2.290725 83.617635 -0.000024 129.559946 0.000018 -0.044345 -5.712116 64.777500 -1.120905 -3.665709 -6.555855 8.244873 -30.620773 -3.274776 -0.000002 0.000001 0.000003 4.540614 -8.344339 48.387389 6.575567 -4.244529 114.349094 0.000002 -0.000002 0.000001 2.375479 -6.542205 44.640207 7.222608 -3.888183 123.454822 0.000001 0.000001 -0.000003 2.745573 -6.923865 44.442289 7.225010 -3.886603 123.490312 -0.000002 0.000000 0.000000 -10.268019 -14.528494 47.436282 6.314172 -4.353067 110.862890 0.000001 -0.000001 0.000000 -0.000000 -0.000001 -0.000001 0.000000 0.000000 0.000000 0.000000 0.000000 0.000000 0.000000 0.000000 0.000000 0.000000 0.000000 0.000000 0.000000 0.000000 0.000000 0.000000 0.000000 -0.000000 0.000000 0.000000 0.000000 0.000000 0.000000 0.000000 0.000000 0.000000 -0.000000 0.000000 0.000000 -0.000000 0.000000 0.000000 -0.000000 -0.000000 0.000000 0.000000 
-0.090555 85.822227 -3.894012 -90.810404 -2.092867 1.794785 -0.000000 -0.000000 -0.000000 -4.594343 19.496867 15.611965 3.730047 2.180424 1.566748 23.383236 29.711815 -25.683391 0.000000 -0.000000 -0.000000 0.000000 -0.000000 -0.000000 -0.000000 -0.000001 0.000001 -5.647330 -19.411509 -17.439597 1.312158 -6.482464 -4.773665 34.938060 -29.582967 30.498775 0.000000 0.000001 -0.000000 0.000000 0.000001 -0.000000 0.000000 0.000001 -0.000001 0.698479 -0.117926 -0.942567 0.841692 0.154198 -0.463160 0.831240 0.158014 -0.488483 -3.979795 4.042041 -8.413904 2.683944 8.574676 -12.963800 -0.000000 0.000001 -0.000001 -0.000000 0.000001 -0.000001 -0.000000 0.000001 -0.000001 0.835173 -6.657530 -3.509656 44.126891 -39.892417 -34.487558 0.000052 -83.340500 0.000046 -23.142496 -8.494811 7.460369 -1.945775 1.585332 13.204783 8.601863 21.114941 -0.258289 -0.000001 0.000002 -0.000004 0.776301 5.158034 -28.512486 0.566011 2.514189 -25.370936 0.000002 0.000003 -0.000001 0.776297 5.158033 -28.512492 0.566012 2.514181 -25.370943 0.000001 -0.000001 0.000002 0.776309 5.158030 -28.512503 0.351460 2.000423 -19.928019 -0.000002 0.000001 -0.000000 0.776306 5.158030 -28.512490 0.064897 0.870533 -8.527008 -0.000001 -0.000000 -0.000000 0.000000 0.000005 -0.000002 0.486094 4.456129 3.202493 -4.344460 2.305358 83.623078 -0.000004 129.552105 -0.000006 -0.043855 -5.712109 64.782411 -1.120901 -3.665707 -6.555852 8.244870 -30.620769 -3.274771 -0.000000 -0.000001 0.000002 4.540617 -8.344338 48.387389 6.575563 -4.244528 114.349094 0.000000 -0.000001 0.000005 2.375477 -6.542202 44.640207 7.222613 -3.888185 123.454822 0.000001 0.000001 -0.000004 2.745570 -6.923867 44.442286 7.225010 -3.886601 123.490312 0.000002 0.000000 -0.000003 -10.268019 -14.528495 47.436289 6.314170 -4.353063 110.862890 0.000000 -0.000001 -0.000002 -0.000000 -0.000003 -0.000000 0.000000 0.000000 -0.000000 0.000000 0.000000 -0.000000 0.000000 0.000000 -0.000000 0.000000 0.000000 -0.000000 0.000000 0.000000 -0.000000 0.000000 0.000000 -0.000000 0.000000 0.000000 -0.000000 0.000000 0.000000 -0.000000 0.000000 0.000000 -0.000000 0.000000 0.000000 -0.000000 0.000000 0.000000 -0.000000 -0.000000 -0.000000 -0.000000 
-0.089805 85.822868 -3.893410 -90.811839 -2.092391 1.795627 0.000000 0.000000 0.000000 -4.599446 19.505198 15.611137 3.735950 2.150677 1.566778 23.380736 29.710223 -25.682508 0.000000 0.000001 -0.000001 0.000000 0.000001 -0.000000 -0.000000 -0.000003 -0.000003 -5.648397 -19.423709 -17.439554 1.313478 -6.467972 -4.773034 34.934539 -29.580159 30.494807 0.000002 0.000001 -0.000000 0.000002 0.000001 -0.000000 0.000000 0.000000 -0.000003 0.698513 -0.117939 -0.942438 0.841712 0.154199 -0.463161 0.835894 0.158014 -0.488483 -4.036194 4.064475 -8.413906 2.850480 8.636294 -13.049385 0.000000 -0.000001 0.000001 0.000000 -0.000001 0.000001 0.000000 -0.000001 0.000001 0.835472 -6.617842 -3.528196 44.151436 -39.911179 -34.423037 0.000477 -83.340507 0.000495 -23.154353 -8.495710 7.459167 -1.945771 1.585331 13.204783 8.601860 21.114937 -0.258289 -0.000003 0.000002 0.000001 0.776302 5.158039 -28.512495 0.566011 2.514190 -25.370937 -0.000002 0.000003 0.000000 0.776298 5.158040 -28.512492 0.566011 2.514183 -25.370944 0.000000 0.000001 0.000000 0.776308 5.158033 -28.512505 0.351461 2.000424 -19.928014 0.000002 -0.000001 -0.000001 0.776306 5.158029 -28.512485 0.064897 0.870534 -8.527008 -0.000002 -0.000000 -0.000004 0.000000 0.000002 -0.000002 0.487200 4.436630 3.202407 -4.352125 2.322241 83.628823 0.000004 129.543062 0.000006 -0.043392 -5.712110 64.787008 -1.120902 -3.665705 -6.555849 8.244872 -30.620773 -3.274778 -0.000003 -0.000001 0.000002 4.540612 -8.344338 48.387393 6.575564 -4.244532 114.349087 -0.000003 -0.000001 0.000005 2.375474 -6.542202 44.640207 7.222613 -3.888184 123.454822 0.000002 0.000001 0.000003 2.745569 -6.923866 44.442286 7.225014 -3.886603 123.490312 -0.000001 0.000000 0.000000 -10.268018 -14.528492 47.436289 6.314170 -4.353066 110.862897 -0.000001 0.000001 -0.000001 -0.000000 0.000003 -0.000000 0.000000 0.000000 0.000000 0.000000 0.000000 0.000000 0.000000 0.000000 0.000000 0.000000 0.000000 0.000000 0.000000 0.000000 0.000000 -0.000000 0.000000 -0.000000 0.000000 0.000000 0.000000 0.000000 0.000000 0.000000 -0.000000 0.000000 -0.000000 0.000000 -0.000000 0.000000 0.000000 -0.000000 0.000000 0.000000 0.000000 0.000000 
